<svg width="58.48" height="45.104" fill="none" xmlns="http://www.w3.org/2000/svg">
    <g clip-path="url(#a)" transform="translate(-12 -4.925)" fill="#eb6d4a">
        <path d="M64.734 31.07c-.671-.027-1.348 0-2.024 0-2.75 0-2.75 0-2.69-2.794a22.445 22.445 0 0 0-7.194-17.297v-.028l-.495-.44a22.506 22.506 0 0 0-34.1 5.275l-.038.06c-.116.198-.237.396-.347.594a22.386 22.386 0 0 0-2.832 12.75c.044.736.55 1.825-.946 1.93-1.293.088-2.26.731-2.035 2.2.225 1.468 1.353 1.65 2.612 1.65 1.953-.039 3.91 0 5.863 0 1.254 0 2.156.506 2.2 1.831.039 1.2-.726 1.865-1.908 1.881-1.469 0-2.426.677-2.31 2.156.115 1.48 1.325 1.65 2.574 1.617 3.503-.027 7.007-.033 10.516 0 1.292 0 2.25.55 2.172 2.052-.071 1.37-.957 1.804-2.2 1.798H25.08c-1.37 0-2.712.072-2.717 1.87-.006 1.799 1.353 1.86 2.717 1.854h31.344c1.287 0 2.354-.237 2.393-1.771.044-1.65-1.1-1.98-2.442-1.947H45.049c-1.27 0-2.112-.55-2.15-1.87-.039-1.32.836-1.892 2.068-1.98.401-.033.808 0 1.21 0 1.232 0 2.381-.138 2.48-1.694.11-1.65-.99-2.04-2.354-2.046-1.243-.066-1.963-.792-1.963-1.892 0-1.249.82-1.925 2.134-1.887H64.679c1.325 0 2.277-.418 2.32-1.897.045-1.48-1-1.92-2.265-1.975z"/>
        <circle cx="63.95" cy="40.562" r="1.854"/>
        <circle cx="68.626" cy="40.562" r="1.854"/>
        <path d="M63.76 38.708h4.981v3.709H63.76z"/>
        <circle cx="53.024" cy="40.562" r="1.854"/>
        <circle cx="57.7" cy="40.562" r="1.854"/>
        <path d="M52.835 38.708h4.981v3.709h-4.981z"/>
    </g>
    <defs>
        <clipPath id="a">
            <path fill="#fff" transform="translate(12 .925)" d="M0 0h58.504v55H0z"/>
        </clipPath>
    </defs>
</svg>